<svg width="86" height="115" viewBox="0 0 86 115" fill="none" xmlns="http://www.w3.org/2000/svg">
<g clip-path="url(#clip0_667_2)">
<path d="M66 28.1875H20C8.9543 28.1875 0 37.1418 0 48.1875V94.1875C0 105.233 8.9543 114.188 20 114.188H66C77.0457 114.188 86 105.233 86 94.1875V48.1875C86 37.1418 77.0457 28.1875 66 28.1875Z" fill="white"/>
<path d="M42 96.1875C55.2548 96.1875 66 85.4423 66 72.1875C66 58.9327 55.2548 48.1875 42 48.1875C28.7452 48.1875 18 58.9327 18 72.1875C18 85.4423 28.7452 96.1875 42 96.1875Z" fill="#943106"/>
<path d="M41.9218 91.6873C52.7344 91.6873 61.4997 82.9219 61.4997 72.1092C61.4997 61.2966 52.7344 52.5312 41.9218 52.5312C31.1091 52.5312 22.3438 61.2966 22.3438 72.1092C22.3438 82.9219 31.1091 91.6873 41.9218 91.6873Z" fill="white"/>
<path d="M11 0.225416H14.0995V15.4411C14.0995 16.85 14.7194 17.3572 15.7056 17.3572C16.6918 17.3572 17.3117 16.85 17.3117 15.4411V0.225416H20.2421V15.2439C20.2421 18.3997 18.6642 20.2031 15.6211 20.2031C12.5779 20.2031 11 18.3997 11 15.2439V0.225416Z" fill="white"/>
<path d="M26.9324 0.225416C30.0319 0.225416 31.5535 1.94423 31.5535 5.10007V7.6642C31.5535 10.82 30.0319 12.5389 26.9324 12.5389H25.4672V19.9495H22.3677V0.225416H26.9324ZM26.9324 3.04314H25.4672V9.72113H26.9324C27.9186 9.72113 28.454 9.2703 28.454 7.86144V4.90283C28.454 3.49397 27.9186 3.04314 26.9324 3.04314Z" fill="white"/>
<path d="M32.9892 19.9495V0.225416H36.0887V17.1317H41.1888V19.9495H32.9892Z" fill="white"/>
<path d="M45.3834 4.76195V15.4129C45.3834 16.8218 46.0033 17.3572 46.9895 17.3572C47.9758 17.3572 48.5957 16.8218 48.5957 15.4129V4.76195C48.5957 3.35309 47.9758 2.81772 46.9895 2.81772C46.0033 2.81772 45.3834 3.35309 45.3834 4.76195ZM42.284 15.2157V4.95919C42.284 1.80334 43.9464 0 46.9895 0C50.0327 0 51.6951 1.80334 51.6951 4.95919V15.2157C51.6951 18.3715 50.0327 20.1749 46.9895 20.1749C43.9464 20.1749 42.284 18.3715 42.284 15.2157Z" fill="white"/>
<path d="M60.5571 0.225416L63.7129 19.9495H60.5853L60.0499 16.371H56.246L55.7106 19.9495H52.8647L56.0206 0.225416H60.5571ZM58.1339 3.71939L56.6405 13.6941H59.6272L58.1339 3.71939Z" fill="white"/>
<path d="M65.1564 19.9495V0.225416H70.0592C73.1587 0.225416 74.6803 1.94423 74.6803 5.10007V15.0748C74.6803 18.2306 73.1587 19.9495 70.0592 19.9495H65.1564ZM70.0028 3.04314H68.2559V17.1317H70.0028C70.989 17.1317 71.5808 16.6245 71.5808 15.2157V4.95919C71.5808 3.55033 70.989 3.04314 70.0028 3.04314Z" fill="white"/>
</g>
<defs>
<clipPath id="clip0_667_2">
<rect width="86" height="114.188" fill="white"/>
</clipPath>
</defs>
</svg>
